<svg width="81" height="58" viewBox="0 0 81 58" fill="none" xmlns="http://www.w3.org/2000/svg">
<path d="M62.1252 33.248C58.4412 33.248 54.9804 31.6862 51.8457 29.1294L52.603 25.5221L52.6281 25.3785C53.3203 21.547 55.4619 15.1058 62.1227 15.1058C67.1133 15.1058 71.1609 19.1741 71.1609 24.1845C71.1609 29.1823 67.1108 33.2505 62.1227 33.2505L62.1252 33.248ZM62.1252 5.91883C53.6362 5.91883 47.0382 11.4557 44.3623 20.5747C40.2871 14.4206 37.1774 7.02217 35.3768 0.790039H26.2333V24.6807C26.2207 29.4039 22.4189 33.2228 17.7167 33.2354C13.0146 33.2228 9.2127 29.3913 9.20016 24.6807V0.790039H0.0566406V24.6807C0.0566406 34.4672 7.98386 42.4854 17.7167 42.4854C27.4596 42.4854 35.3768 34.4697 35.3768 24.6807V20.6779C37.1523 24.391 39.3341 28.1696 41.9849 31.5023L36.3824 57.9397H45.7341L49.7968 38.7572C53.3503 41.0394 57.4381 42.4828 62.1277 42.4828C72.159 42.4828 80.3094 34.243 80.3094 24.1794C80.3094 14.1032 72.159 5.91631 62.1277 5.91631L62.1252 5.91883Z" fill="#808080"/>
</svg>
